<svg xmlns="http://www.w3.org/2000/svg" width="100" height="100" viewBox="0 0 100 100">
  <g id="Play" transform="translate(-914 -252)">
    <g id="Ellipse_4" data-name="Ellipse 4" transform="translate(914 252)" fill="none" stroke="#ff003b" stroke-width="5">
      <circle cx="50" cy="50" r="50" stroke="none"/>
      <circle cx="50" cy="50" r="47.5" fill="none"/>
    </g>
    <g id="Polygon_1" data-name="Polygon 1" transform="translate(987 282) rotate(90)" fill="none">
      <path d="M17.4,4.523a3,3,0,0,1,5.2,0L37.415,30.287a3,3,0,0,1-2.6,4.5H5.186a3,3,0,0,1-2.6-4.5Z" stroke="none"/>
      <path d="M 19.9999885559082 10.03067398071289 L 8.642635345458984 29.7825927734375 L 31.35734176635742 29.7825927734375 L 19.9999885559082 10.03067398071289 M 19.9999885559082 3.018402099609375 C 21.0119686126709 3.018402099609375 22.02394866943359 3.519931793212891 22.6007080078125 4.522991180419922 L 37.41511917114258 30.28718185424805 C 38.56510925292969 32.28717422485352 37.1214485168457 34.7825927734375 34.81439971923828 34.7825927734375 L 5.185577392578125 34.7825927734375 C 2.878528594970703 34.7825927734375 1.434860229492188 32.28717422485352 2.584857940673828 30.28718185424805 L 17.39926910400391 4.522991180419922 C 17.97602844238281 3.519931793212891 18.98800849914551 3.018402099609375 19.9999885559082 3.018402099609375 Z" stroke="none" fill="#ff003b"/>
    </g>
  </g>
</svg>
